<svg width="1920" height="1080" viewBox="0 0 1920 1080" fill="none" xmlns="http://www.w3.org/2000/svg">
<g clip-path="url(#clip0_1577_3)">
<rect width="1920" height="1080" fill="#27232D"/>
<mask id="path-1-inside-1_1577_3" fill="white">
<path d="M1763.52 404.393L1738.5 325.252L1794.53 264.018L1875.58 281.924L1900.59 361.065L1844.56 422.299L1763.52 404.393Z"/>
<path d="M1552.23 211.393L1527.21 132.252L1583.24 71.018L1664.29 88.9241L1689.3 168.065L1633.27 229.299L1552.23 211.393Z"/>
<path d="M1658.02 307.86L1633 228.719L1689.03 167.485L1770.08 185.391L1795.09 264.531L1739.06 325.766L1658.02 307.86Z"/>
<path d="M1447.02 114.793L1422 35.6524L1478.03 -25.582L1559.08 -7.67596L1584.09 71.4645L1528.06 132.699L1447.02 114.793Z"/>
<path d="M1794.11 264.306L1769.09 185.165L1825.12 123.931L1906.17 141.837L1931.18 220.978L1875.15 282.212L1794.11 264.306Z"/>
<path d="M1583.11 71.2393L1558.09 -7.90125L1614.12 -69.1357L1695.17 -51.2296L1720.18 27.9109L1664.15 89.1453L1583.11 71.2393Z"/>
<path d="M1688.61 167.773L1663.59 88.6321L1719.62 27.3977L1800.67 45.3037L1825.68 124.444L1769.65 185.679L1688.61 167.773Z"/>
<path d="M1477.61 -25.2941L1452.59 -104.435L1508.62 -165.669L1589.67 -147.763L1614.68 -68.6225L1558.65 -7.388L1477.61 -25.2941Z"/>
<path d="M1819.55 343.159L1794.53 264.018L1850.56 202.784L1931.61 220.69L1956.62 299.83L1900.59 361.065L1819.55 343.159Z"/>
<path d="M1608.55 150.092L1583.53 70.9513L1639.56 9.71689L1720.61 27.6229L1745.62 106.763L1689.59 167.998L1608.55 150.092Z"/>
<path d="M1714.05 246.625L1689.03 167.485L1745.06 106.25L1826.11 124.156L1851.12 203.297L1795.09 264.531L1714.05 246.625Z"/>
<path d="M1503.05 53.5584L1478.03 -25.582L1534.06 -86.8165L1615.11 -68.9104L1640.12 10.2301L1584.09 71.4645L1503.05 53.5584Z"/>
<path d="M1824.2 124.211L1799.18 45.0706L1855.21 -16.1638L1936.26 1.74225L1961.27 80.8828L1905.24 142.117L1824.2 124.211Z"/>
<path d="M1612.9 -68.7889L1587.89 -147.929L1643.92 -209.164L1724.96 -191.258L1749.98 -112.117L1693.95 -50.8828L1612.9 -68.7889Z"/>
<path d="M1718.7 27.6778L1693.68 -51.4627L1749.71 -112.697L1830.75 -94.7911L1855.77 -15.6506L1799.74 45.5838L1718.7 27.6778Z"/>
<path d="M1507.69 -165.389L1482.68 -244.529L1538.71 -305.764L1619.75 -287.858L1644.77 -208.717L1588.74 -147.483L1507.69 -165.389Z"/>
<path d="M1880.23 62.9767L1855.21 -16.1638L1911.24 -77.3983L1992.29 -59.4922L2017.3 19.6483L1961.27 80.8828L1880.23 62.9767Z"/>
<path d="M1669.22 -130.09L1644.21 -209.231L1700.24 -270.465L1781.28 -252.559L1806.3 -173.418L1750.27 -112.184L1669.22 -130.09Z"/>
<path d="M1774.73 -33.5566L1749.71 -112.697L1805.74 -173.932L1886.78 -156.026L1911.8 -76.885L1855.77 -15.6506L1774.73 -33.5566Z"/>
<path d="M1563.72 -226.623L1538.71 -305.764L1594.74 -366.998L1675.78 -349.092L1700.8 -269.952L1644.77 -208.717L1563.72 -226.623Z"/>
<path d="M1869.2 501.211L1844.18 422.071L1900.21 360.836L1981.26 378.742L2006.27 457.883L1950.24 519.117L1869.2 501.211Z"/>
<path d="M1657.9 308.211L1632.89 229.071L1688.92 167.836L1769.96 185.742L1794.98 264.883L1738.95 326.117L1657.9 308.211Z"/>
<path d="M1763.7 404.678L1738.68 325.537L1794.71 264.303L1875.75 282.209L1900.77 361.349L1844.74 422.584L1763.7 404.678Z"/>
<path d="M1552.69 211.611L1527.68 132.471L1583.71 71.2361L1664.75 89.1422L1689.77 168.283L1633.74 229.517L1552.69 211.611Z"/>
<path d="M1925.23 439.977L1900.21 360.836L1956.24 299.602L2037.29 317.508L2062.3 396.648L2006.27 457.883L1925.23 439.977Z"/>
<path d="M1714.22 246.91L1689.21 167.77L1745.24 106.535L1826.28 124.441L1851.3 203.582L1795.27 264.816L1714.22 246.91Z"/>
<path d="M1819.73 343.443L1794.71 264.303L1850.74 203.068L1931.78 220.974L1956.8 300.115L1900.77 361.349L1819.73 343.443Z"/>
<path d="M1608.72 150.377L1583.71 71.2361L1639.74 10.0017L1720.78 27.9077L1745.8 107.048L1689.77 168.283L1608.72 150.377Z"/>
</mask>
<path d="M1608.52 149.423L1552.52 210.423L1553.26 211.099L1609.26 150.099L1608.52 149.423ZM1880.52 61.4228L1825.52 123.423L1826.27 124.086L1881.27 62.0864L1880.52 61.4228ZM1714.52 245.423L1658.52 307.423L1659.26 308.093L1715.26 246.093L1714.52 245.423ZM1819.52 342.423L1763.52 403.423L1764.26 404.099L1820.26 343.099L1819.52 342.423ZM1503.52 52.4228L1446.52 113.423L1447.25 114.106L1504.25 53.1055L1503.52 52.4228ZM1763.52 404.393L1762.56 404.694L1762.74 405.245L1763.3 405.369L1763.52 404.393ZM1738.5 325.252L1737.76 324.577L1737.38 325.003L1737.55 325.554L1738.5 325.252ZM1794.53 264.018L1793.79 263.343L1793.79 263.343L1794.53 264.018ZM1875.58 281.924L1876.53 281.623L1876.36 281.072L1875.79 280.948L1875.58 281.924ZM1844.56 422.299L1844.35 423.275L1844.91 423.4L1845.3 422.974L1844.56 422.299ZM1552.23 211.393L1551.27 211.694L1551.45 212.245L1552.01 212.369L1552.23 211.393ZM1527.21 132.252L1526.47 131.577L1526.08 132.003L1526.26 132.554L1527.21 132.252ZM1583.24 71.018L1583.46 70.0416L1582.89 69.917L1582.5 70.3429L1583.24 71.018ZM1664.29 88.9241L1665.24 88.6227L1665.06 88.0722L1664.5 87.9476L1664.29 88.9241ZM1689.3 168.065L1690.04 168.74L1690.43 168.314L1690.25 167.763L1689.3 168.065ZM1633.27 229.299L1633.06 230.275L1633.62 230.4L1634.01 229.974L1633.27 229.299ZM1658.02 307.86L1657.06 308.161L1657.24 308.712L1657.8 308.836L1658.02 307.86ZM1633 228.719L1632.26 228.044L1631.87 228.47L1632.05 229.021L1633 228.719ZM1770.08 185.391L1771.03 185.089L1770.86 184.539L1770.29 184.414L1770.08 185.391ZM1739.06 325.766L1738.85 326.742L1739.41 326.867L1739.8 326.441L1739.06 325.766ZM1447.02 114.793L1446.06 115.094L1446.24 115.645L1446.8 115.769L1447.02 114.793ZM1422 35.6524L1421.26 34.9773L1420.87 35.4033L1421.05 35.9538L1422 35.6524ZM1559.08 -7.67596L1560.03 -7.97736L1559.86 -8.52786L1559.29 -8.65242L1559.08 -7.67596ZM1528.06 132.699L1527.85 133.675L1528.41 133.8L1528.8 133.374L1528.06 132.699ZM1794.11 264.306L1793.15 264.607L1793.33 265.158L1793.89 265.282L1794.11 264.306ZM1769.09 185.165L1768.35 184.49L1767.96 184.916L1768.14 185.467L1769.09 185.165ZM1825.12 123.931L1825.34 122.955L1824.77 122.83L1824.38 123.256L1825.12 123.931ZM1906.17 141.837L1907.12 141.536L1906.95 140.985L1906.38 140.861L1906.17 141.837ZM1931.18 220.978L1931.92 221.653L1932.31 221.227L1932.14 220.676L1931.18 220.978ZM1875.15 282.212L1874.94 283.188L1875.5 283.313L1875.89 282.887L1875.15 282.212ZM1583.11 71.2393L1582.15 71.5407L1582.33 72.0912L1582.89 72.2157L1583.11 71.2393ZM1558.09 -7.90125L1557.35 -8.5763L1556.96 -8.15036L1557.14 -7.59985L1558.09 -7.90125ZM1614.12 -69.1357L1614.34 -70.1121L1613.77 -70.2367L1613.38 -69.8107L1614.12 -69.1357ZM1695.17 -51.2296L1696.12 -51.531L1695.95 -52.0815L1695.38 -52.2061L1695.17 -51.2296ZM1720.18 27.9109L1720.92 28.5859L1721.31 28.16L1721.13 27.6095L1720.18 27.9109ZM1664.15 89.1453L1663.94 90.1218L1664.5 90.2463L1664.89 89.8204L1664.15 89.1453ZM1688.61 167.773L1687.65 168.074L1687.83 168.625L1688.39 168.749L1688.61 167.773ZM1663.59 88.6321L1662.85 87.9571L1662.46 88.383L1662.64 88.9335L1663.59 88.6321ZM1719.62 27.3977L1719.84 26.4213L1719.27 26.2967L1718.88 26.7226L1719.62 27.3977ZM1800.67 45.3037L1801.62 45.0023L1801.45 44.4518L1800.88 44.3273L1800.67 45.3037ZM1825.68 124.444L1826.42 125.119L1826.81 124.693L1826.64 124.143L1825.68 124.444ZM1769.65 185.679L1769.44 186.655L1770 186.78L1770.39 186.354L1769.65 185.679ZM1477.61 -25.2941L1476.65 -24.9927L1476.83 -24.4422L1477.39 -24.3176L1477.61 -25.2941ZM1452.59 -104.435L1451.85 -105.11L1451.46 -104.684L1451.64 -104.133L1452.59 -104.435ZM1508.62 -165.669L1508.84 -166.645L1508.27 -166.77L1507.88 -166.344L1508.62 -165.669ZM1589.67 -147.763L1590.62 -148.064L1590.44 -148.615L1589.88 -148.739L1589.67 -147.763ZM1614.68 -68.6225L1615.42 -67.9474L1615.81 -68.3734L1615.63 -68.9239L1614.68 -68.6225ZM1558.65 -7.388L1558.44 -6.41155L1559 -6.28699L1559.39 -6.71294L1558.65 -7.388ZM1819.55 343.159L1818.59 343.46L1818.77 344.01L1819.33 344.135L1819.55 343.159ZM1850.56 202.784L1850.78 201.807L1850.21 201.683L1849.82 202.109L1850.56 202.784ZM1931.61 220.69L1932.56 220.388L1932.39 219.838L1931.82 219.713L1931.61 220.69ZM1956.62 299.83L1957.36 300.505L1957.75 300.079L1957.58 299.529L1956.62 299.83ZM1608.55 150.092L1607.59 150.393L1607.77 150.944L1608.33 151.068L1608.55 150.092ZM1583.53 70.9513L1582.79 70.2763L1582.4 70.7022L1582.58 71.2527L1583.53 70.9513ZM1639.56 9.71689L1639.78 8.74044L1639.21 8.61588L1638.82 9.04183L1639.56 9.71689ZM1720.61 27.6229L1721.56 27.3215L1721.39 26.771L1720.82 26.6465L1720.61 27.6229ZM1745.62 106.763L1746.36 107.438L1746.75 107.013L1746.58 106.462L1745.62 106.763ZM1689.59 167.998L1689.38 168.974L1689.94 169.099L1690.33 168.673L1689.59 167.998ZM1714.05 246.625L1713.09 246.927L1713.27 247.477L1713.83 247.602L1714.05 246.625ZM1745.06 106.25L1745.28 105.274L1744.71 105.149L1744.32 105.575L1745.06 106.25ZM1826.11 124.156L1827.06 123.855L1826.89 123.304L1826.32 123.18L1826.11 124.156ZM1851.12 203.297L1851.86 203.972L1852.25 203.546L1852.08 202.995L1851.12 203.297ZM1503.05 53.5584L1502.09 53.8598L1502.27 54.4103L1502.83 54.5349L1503.05 53.5584ZM1534.06 -86.8165L1534.28 -87.7929L1533.71 -87.9175L1533.32 -87.4915L1534.06 -86.8165ZM1615.11 -68.9104L1616.06 -69.2118L1615.89 -69.7623L1615.32 -69.8869L1615.11 -68.9104ZM1640.12 10.2301L1640.86 10.9051L1641.25 10.4792L1641.08 9.92868L1640.12 10.2301ZM1824.2 124.211L1823.24 124.513L1823.42 125.063L1823.98 125.188L1824.2 124.211ZM1799.18 45.0706L1798.44 44.3956L1798.05 44.8215L1798.23 45.372L1799.18 45.0706ZM1855.21 -16.1638L1854.47 -16.8389L1854.47 -16.8389L1855.21 -16.1638ZM1936.26 1.74225L1937.21 1.44086L1937.03 0.890352L1936.47 0.765797L1936.26 1.74225ZM1905.24 142.117L1905.03 143.094L1905.59 143.218L1905.98 142.792L1905.24 142.117ZM1612.9 -68.7889L1611.95 -68.4875L1612.12 -67.937L1612.69 -67.8124L1612.9 -68.7889ZM1587.89 -147.929L1587.15 -148.604L1586.76 -148.178L1586.93 -147.628L1587.89 -147.929ZM1643.92 -209.164L1644.13 -210.14L1643.57 -210.265L1643.18 -209.839L1643.92 -209.164ZM1724.96 -191.258L1725.92 -191.559L1725.74 -192.11L1725.18 -192.234L1724.96 -191.258ZM1749.98 -112.117L1750.72 -111.442L1751.11 -111.868L1750.93 -112.419L1749.98 -112.117ZM1693.95 -50.8828L1693.73 -49.9064L1694.3 -49.7818L1694.69 -50.2078L1693.95 -50.8828ZM1718.7 27.6778L1717.74 27.9792L1717.92 28.5297L1718.48 28.6542L1718.7 27.6778ZM1693.68 -51.4627L1692.94 -52.1378L1692.55 -51.7118L1692.73 -51.1613L1693.68 -51.4627ZM1830.75 -94.7911L1831.71 -95.0925L1831.53 -95.643L1830.97 -95.7675L1830.75 -94.7911ZM1855.77 -15.6506L1856.51 -14.9755L1856.51 -14.9755L1855.77 -15.6506ZM1799.74 45.5838L1799.53 46.5603L1800.09 46.6848L1800.48 46.2589L1799.74 45.5838ZM1507.69 -165.389L1506.74 -165.088L1506.92 -164.537L1507.48 -164.412L1507.69 -165.389ZM1482.68 -244.529L1481.94 -245.204L1481.55 -244.779L1481.73 -244.228L1482.68 -244.529ZM1538.71 -305.764L1537.97 -306.439L1537.97 -306.439L1538.71 -305.764ZM1619.75 -287.858L1620.71 -288.159L1620.53 -288.71L1619.97 -288.834L1619.75 -287.858ZM1588.74 -147.483L1588.52 -146.506L1589.09 -146.382L1589.48 -146.808L1588.74 -147.483ZM1880.23 62.9767L1879.27 63.2781L1879.45 63.8286L1880.01 63.9531L1880.23 62.9767ZM1911.24 -77.3983L1911.46 -78.3747L1910.89 -78.4993L1910.5 -78.0733L1911.24 -77.3983ZM1992.29 -59.4922L1993.24 -59.7936L1993.06 -60.3441L1992.5 -60.4686L1992.29 -59.4922ZM2017.3 19.6483L2018.04 20.3234L2018.43 19.8974L2018.25 19.3469L2017.3 19.6483ZM1669.22 -130.09L1668.27 -129.789L1668.45 -129.238L1669.01 -129.114L1669.22 -130.09ZM1644.21 -209.231L1643.47 -209.906L1643.08 -209.48L1643.26 -208.929L1644.21 -209.231ZM1700.24 -270.465L1700.45 -271.441L1699.89 -271.566L1699.5 -271.14L1700.24 -270.465ZM1781.28 -252.559L1782.24 -252.86L1782.06 -253.411L1781.5 -253.535L1781.28 -252.559ZM1806.3 -173.418L1807.04 -172.743L1807.43 -173.169L1807.25 -173.72L1806.3 -173.418ZM1750.27 -112.184L1750.05 -111.208L1750.62 -111.083L1751.01 -111.509L1750.27 -112.184ZM1774.73 -33.5566L1773.77 -33.2552L1773.95 -32.7047L1774.51 -32.5802L1774.73 -33.5566ZM1805.74 -173.932L1805.96 -174.908L1805.39 -175.033L1805 -174.607L1805.74 -173.932ZM1886.78 -156.026L1887.74 -156.327L1887.56 -156.877L1887 -157.002L1886.78 -156.026ZM1911.8 -76.885L1912.54 -76.21L1912.93 -76.6359L1912.75 -77.1864L1911.8 -76.885ZM1563.72 -226.623L1562.77 -226.322L1562.95 -225.771L1563.51 -225.647L1563.72 -226.623ZM1594.74 -366.998L1594.95 -367.975L1594.39 -368.099L1594 -367.673L1594.74 -366.998ZM1675.78 -349.092L1676.74 -349.394L1676.56 -349.944L1676 -350.069L1675.78 -349.092ZM1700.8 -269.952L1701.54 -269.277L1701.93 -269.703L1701.75 -270.253L1700.8 -269.952ZM1869.2 501.211L1868.24 501.513L1868.42 502.063L1868.98 502.188L1869.2 501.211ZM1844.18 422.071L1843.44 421.396L1843.05 421.822L1843.23 422.372L1844.18 422.071ZM1981.26 378.742L1982.21 378.441L1982.03 377.89L1981.47 377.766L1981.26 378.742ZM2006.27 457.883L2007.01 458.558L2007.01 458.558L2006.27 457.883ZM1950.24 519.117L1950.03 520.094L1950.59 520.218L1950.98 519.792L1950.24 519.117ZM1657.9 308.211L1656.95 308.513L1657.12 309.063L1657.69 309.188L1657.9 308.211ZM1632.89 229.071L1632.15 228.396L1631.76 228.822L1631.93 229.372L1632.89 229.071ZM1688.92 167.836L1689.13 166.86L1688.57 166.735L1688.18 167.161L1688.92 167.836ZM1769.96 185.742L1770.92 185.441L1770.74 184.89L1770.18 184.766L1769.96 185.742ZM1794.98 264.883L1795.72 265.558L1796.11 265.132L1795.93 264.581L1794.98 264.883ZM1738.95 326.117L1738.73 327.094L1739.3 327.218L1739.69 326.792L1738.95 326.117ZM1763.7 404.678L1762.74 404.979L1762.92 405.53L1763.48 405.654L1763.7 404.678ZM1738.68 325.537L1737.94 324.862L1737.55 325.288L1737.73 325.839L1738.68 325.537ZM1794.71 264.303L1793.97 263.628L1793.97 263.628L1794.71 264.303ZM1875.75 282.209L1876.71 281.908L1876.53 281.357L1875.97 281.232L1875.75 282.209ZM1900.77 361.349L1901.51 362.024L1901.51 362.024L1900.77 361.349ZM1844.74 422.584L1844.53 423.56L1845.09 423.685L1845.48 423.259L1844.74 422.584ZM1552.69 211.611L1551.74 211.912L1551.92 212.463L1552.48 212.588L1552.69 211.611ZM1527.68 132.471L1526.94 131.796L1526.55 132.221L1526.73 132.772L1527.68 132.471ZM1664.75 89.1422L1665.71 88.8408L1665.53 88.2903L1664.97 88.1657L1664.75 89.1422ZM1633.74 229.517L1633.52 230.494L1634.09 230.618L1634.48 230.192L1633.74 229.517ZM1925.23 439.977L1924.27 440.278L1924.45 440.829L1925.01 440.953L1925.23 439.977ZM1956.24 299.602L1956.46 298.625L1955.89 298.501L1955.5 298.927L1956.24 299.602ZM2037.29 317.508L2038.24 317.206L2038.06 316.656L2037.5 316.531L2037.29 317.508ZM2062.3 396.648L2063.04 397.323L2063.43 396.897L2063.25 396.347L2062.3 396.648ZM1714.22 246.91L1713.27 247.211L1713.45 247.762L1714.01 247.886L1714.22 246.91ZM1689.21 167.77L1688.47 167.094L1688.08 167.52L1688.26 168.071L1689.21 167.77ZM1745.24 106.535L1745.45 105.559L1744.89 105.434L1744.5 105.86L1745.24 106.535ZM1826.28 124.441L1827.24 124.14L1827.06 123.589L1826.5 123.465L1826.28 124.441ZM1851.3 203.582L1852.04 204.257L1852.43 203.831L1852.25 203.28L1851.3 203.582ZM1795.27 264.816L1795.05 265.792L1795.62 265.917L1796.01 265.491L1795.27 264.816ZM1819.73 343.443L1818.77 343.745L1818.95 344.295L1819.51 344.42L1819.73 343.443ZM1850.74 203.068L1850.96 202.092L1850.39 201.967L1850 202.393L1850.74 203.068ZM1931.78 220.974L1932.74 220.673L1932.56 220.123L1932 219.998L1931.78 220.974ZM1956.8 300.115L1957.54 300.79L1957.93 300.364L1957.75 299.814L1956.8 300.115ZM1608.72 150.377L1607.77 150.678L1607.95 151.229L1608.51 151.353L1608.72 150.377ZM1639.74 10.0017L1639.95 9.02526L1639.39 8.9007L1639 9.32665L1639.74 10.0017ZM1720.78 27.9077L1721.74 27.6064L1721.56 27.0558L1721 26.9313L1720.78 27.9077ZM1745.8 107.048L1746.54 107.723L1746.93 107.297L1746.75 106.747L1745.8 107.048ZM1764.47 404.092L1739.46 324.951L1737.55 325.554L1762.56 404.694L1764.47 404.092ZM1739.24 325.928L1795.27 264.693L1793.79 263.343L1737.76 324.577L1739.24 325.928ZM1794.32 264.994L1875.36 282.901L1875.79 280.948L1794.75 263.042L1794.32 264.994ZM1874.62 282.225L1899.64 361.366L1901.55 360.763L1876.53 281.623L1874.62 282.225ZM1899.86 360.39L1843.83 421.624L1845.3 422.974L1901.33 361.74L1899.86 360.39ZM1844.78 421.323L1763.73 403.417L1763.3 405.369L1844.35 423.275L1844.78 421.323ZM1553.18 211.092L1528.16 131.951L1526.26 132.554L1551.27 211.694L1553.18 211.092ZM1527.95 132.927L1583.98 71.6931L1582.5 70.3429L1526.47 131.577L1527.95 132.927ZM1583.02 71.9945L1664.07 89.9005L1664.5 87.9476L1583.46 70.0416L1583.02 71.9945ZM1663.33 89.2255L1688.35 168.366L1690.25 167.763L1665.24 88.6227L1663.33 89.2255ZM1688.56 167.39L1632.53 228.624L1634.01 229.974L1690.04 168.74L1688.56 167.39ZM1633.49 228.323L1552.44 210.416L1552.01 212.369L1633.06 230.275L1633.49 228.323ZM1658.97 307.558L1633.96 228.418L1632.05 229.021L1657.06 308.161L1658.97 307.558ZM1633.74 229.394L1689.77 168.16L1688.29 166.81L1632.26 228.044L1633.74 229.394ZM1688.82 168.461L1769.86 186.367L1770.29 184.414L1689.25 166.508L1688.82 168.461ZM1769.12 185.692L1794.14 264.833L1796.05 264.23L1771.03 185.089L1769.12 185.692ZM1794.36 263.856L1738.33 325.091L1739.8 326.441L1795.83 265.206L1794.36 263.856ZM1739.28 324.789L1658.23 306.883L1657.8 308.836L1738.85 326.742L1739.28 324.789ZM1447.97 114.491L1422.96 35.351L1421.05 35.9538L1446.06 115.094L1447.97 114.491ZM1422.74 36.3275L1478.77 -24.907L1477.29 -26.2571L1421.26 34.9773L1422.74 36.3275ZM1477.82 -24.6056L1558.86 -6.69951L1559.29 -8.65242L1478.25 -26.5585L1477.82 -24.6056ZM1558.12 -7.37457L1583.14 71.7659L1585.05 71.1631L1560.03 -7.97736L1558.12 -7.37457ZM1583.35 70.7894L1527.33 132.024L1528.8 133.374L1584.83 72.1396L1583.35 70.7894ZM1528.28 131.722L1447.23 113.816L1446.8 115.769L1527.85 133.675L1528.28 131.722ZM1795.06 264.005L1770.04 184.864L1768.14 185.467L1793.15 264.607L1795.06 264.005ZM1769.83 185.841L1825.86 124.606L1824.38 123.256L1768.35 184.49L1769.83 185.841ZM1824.9 124.908L1905.95 142.814L1906.38 140.861L1825.34 122.955L1824.9 124.908ZM1905.21 142.138L1930.23 221.279L1932.14 220.676L1907.12 141.536L1905.21 142.138ZM1930.44 220.303L1874.41 281.537L1875.89 282.887L1931.92 221.653L1930.44 220.303ZM1875.37 281.236L1794.32 263.33L1793.89 265.282L1874.94 283.188L1875.37 281.236ZM1584.06 70.9379L1559.04 -8.20264L1557.14 -7.59985L1582.15 71.5407L1584.06 70.9379ZM1558.83 -7.22619L1614.86 -68.4606L1613.38 -69.8107L1557.35 -8.5763L1558.83 -7.22619ZM1613.9 -68.1592L1694.95 -50.2532L1695.38 -52.2061L1614.34 -70.1121L1613.9 -68.1592ZM1694.21 -50.9282L1719.23 28.2123L1721.13 27.6095L1696.12 -51.531L1694.21 -50.9282ZM1719.44 27.2358L1663.41 88.4703L1664.89 89.8204L1720.92 28.5859L1719.44 27.2358ZM1664.37 88.1689L1583.32 70.2628L1582.89 72.2157L1663.94 90.1218L1664.37 88.1689ZM1689.56 167.471L1664.54 88.3307L1662.64 88.9335L1687.65 168.074L1689.56 167.471ZM1664.33 89.3072L1720.36 28.0728L1718.88 26.7226L1662.85 87.9571L1664.33 89.3072ZM1719.4 28.3742L1800.45 46.2802L1800.88 44.3273L1719.84 26.4213L1719.4 28.3742ZM1799.71 45.6051L1824.73 124.746L1826.64 124.143L1801.62 45.0023L1799.71 45.6051ZM1824.94 123.769L1768.91 185.004L1770.39 186.354L1826.42 125.119L1824.94 123.769ZM1769.87 184.702L1688.82 166.796L1688.39 168.749L1769.44 186.655L1769.87 184.702ZM1478.56 -25.5955L1453.54 -104.736L1451.64 -104.133L1476.65 -24.9927L1478.56 -25.5955ZM1453.33 -103.76L1509.36 -164.994L1507.88 -166.344L1451.85 -105.11L1453.33 -103.76ZM1508.4 -164.693L1589.45 -146.786L1589.88 -148.739L1508.84 -166.645L1508.4 -164.693ZM1588.71 -147.462L1613.73 -68.3211L1615.63 -68.9239L1590.62 -148.064L1588.71 -147.462ZM1613.94 -69.2976L1557.91 -8.06306L1559.39 -6.71294L1615.42 -67.9474L1613.94 -69.2976ZM1558.87 -8.36445L1477.82 -26.2705L1477.39 -24.3176L1558.44 -6.41155L1558.87 -8.36445ZM1820.5 342.857L1795.49 263.717L1793.58 264.319L1818.59 343.46L1820.5 342.857ZM1795.27 264.693L1851.3 203.459L1849.82 202.109L1793.79 263.343L1795.27 264.693ZM1850.35 203.76L1931.39 221.666L1931.82 219.713L1850.78 201.807L1850.35 203.76ZM1930.65 220.991L1955.67 300.132L1957.58 299.529L1932.56 220.388L1930.65 220.991ZM1955.89 299.155L1899.86 360.39L1901.33 361.74L1957.36 300.505L1955.89 299.155ZM1900.81 360.088L1819.76 342.182L1819.33 344.135L1900.38 362.041L1900.81 360.088ZM1609.5 149.79L1584.49 70.6499L1582.58 71.2527L1607.59 150.393L1609.5 149.79ZM1584.27 71.6264L1640.3 10.3919L1638.82 9.04183L1582.79 70.2763L1584.27 71.6264ZM1639.35 10.6933L1720.39 28.5994L1720.82 26.6465L1639.78 8.74044L1639.35 10.6933ZM1719.65 27.9243L1744.67 107.065L1746.58 106.462L1721.56 27.3215L1719.65 27.9243ZM1744.89 106.088L1688.86 167.323L1690.33 168.673L1746.36 107.438L1744.89 106.088ZM1689.81 167.021L1608.76 149.115L1608.33 151.068L1689.38 168.974L1689.81 167.021ZM1715 246.324L1689.99 167.183L1688.08 167.786L1713.09 246.927L1715 246.324ZM1689.77 168.16L1745.8 106.925L1744.32 105.575L1688.29 166.81L1689.77 168.16ZM1744.85 107.227L1825.89 125.133L1826.32 123.18L1745.28 105.274L1744.85 107.227ZM1825.15 124.458L1850.17 203.598L1852.08 202.995L1827.06 123.855L1825.15 124.458ZM1850.39 202.622L1794.36 263.856L1795.83 265.206L1851.86 203.972L1850.39 202.622ZM1795.31 263.555L1714.26 245.649L1713.83 247.602L1794.88 265.508L1795.31 263.555ZM1504 53.257L1478.99 -25.8834L1477.08 -25.2806L1502.09 53.8598L1504 53.257ZM1478.77 -24.907L1534.8 -86.1414L1533.32 -87.4915L1477.29 -26.2571L1478.77 -24.907ZM1533.85 -85.84L1614.89 -67.9339L1615.32 -69.8869L1534.28 -87.7929L1533.85 -85.84ZM1614.15 -68.609L1639.17 10.5315L1641.08 9.92868L1616.06 -69.2118L1614.15 -68.609ZM1639.38 9.55501L1583.35 70.7894L1584.83 72.1396L1640.86 10.9051L1639.38 9.55501ZM1584.31 70.4881L1503.26 52.582L1502.83 54.5349L1583.88 72.441L1584.31 70.4881ZM1825.15 123.91L1800.13 44.7693L1798.23 45.372L1823.24 124.513L1825.15 123.91ZM1799.92 45.7457L1855.95 -15.4888L1854.47 -16.8389L1798.44 44.3956L1799.92 45.7457ZM1854.99 -15.1874L1936.04 2.7187L1936.47 0.765797L1855.43 -17.1403L1854.99 -15.1874ZM1935.3 2.04364L1960.32 81.1841L1962.22 80.5814L1937.21 1.44086L1935.3 2.04364ZM1960.53 80.2077L1904.5 141.442L1905.98 142.792L1962.01 81.5578L1960.53 80.2077ZM1905.46 141.141L1824.41 123.235L1823.98 125.188L1905.03 143.094L1905.46 141.141ZM1613.86 -69.0903L1588.84 -148.231L1586.93 -147.628L1611.95 -68.4875L1613.86 -69.0903ZM1588.62 -147.254L1644.65 -208.489L1643.18 -209.839L1587.15 -148.604L1588.62 -147.254ZM1643.7 -208.187L1724.75 -190.281L1725.18 -192.234L1644.13 -210.14L1643.7 -208.187ZM1724.01 -190.956L1749.02 -111.816L1750.93 -112.419L1725.92 -191.559L1724.01 -190.956ZM1749.24 -112.792L1693.21 -51.5579L1694.69 -50.2078L1750.72 -111.442L1749.24 -112.792ZM1694.16 -51.8593L1613.12 -69.7653L1612.69 -67.8124L1693.73 -49.9064L1694.16 -51.8593ZM1719.65 27.3764L1694.63 -51.7641L1692.73 -51.1613L1717.74 27.9792L1719.65 27.3764ZM1694.42 -50.7876L1750.45 -112.022L1748.97 -113.372L1692.94 -52.1378L1694.42 -50.7876ZM1749.49 -111.721L1830.54 -93.8146L1830.97 -95.7675L1749.93 -113.674L1749.49 -111.721ZM1829.8 -94.4897L1854.82 -15.3492L1856.72 -15.952L1831.71 -95.0925L1829.8 -94.4897ZM1855.03 -16.3256L1799 44.9088L1800.48 46.2589L1856.51 -14.9755L1855.03 -16.3256ZM1799.96 44.6074L1718.91 26.7013L1718.48 28.6542L1799.53 46.5603L1799.96 44.6074ZM1508.65 -165.69L1483.63 -244.831L1481.73 -244.228L1506.74 -165.088L1508.65 -165.69ZM1483.42 -243.854L1539.45 -305.089L1537.97 -306.439L1481.94 -245.204L1483.42 -243.854ZM1538.49 -304.787L1619.54 -286.881L1619.97 -288.834L1538.92 -306.74L1538.49 -304.787ZM1618.8 -287.556L1643.82 -208.416L1645.72 -209.019L1620.71 -288.159L1618.8 -287.556ZM1644.03 -209.392L1588 -148.158L1589.48 -146.808L1645.51 -208.042L1644.03 -209.392ZM1588.96 -148.459L1507.91 -166.365L1507.48 -164.412L1588.52 -146.506L1588.96 -148.459ZM1881.18 62.6753L1856.16 -16.4652L1854.26 -15.8624L1879.27 63.2781L1881.18 62.6753ZM1855.95 -15.4888L1911.98 -76.7232L1910.5 -78.0733L1854.47 -16.8389L1855.95 -15.4888ZM1911.02 -76.4218L1992.07 -58.5157L1992.5 -60.4686L1911.46 -78.3747L1911.02 -76.4218ZM1991.33 -59.1908L2016.35 19.9497L2018.25 19.3469L1993.24 -59.7936L1991.33 -59.1908ZM2016.56 18.9733L1960.53 80.2077L1962.01 81.5578L2018.04 20.3234L2016.56 18.9733ZM1961.49 79.9063L1880.44 62.0002L1880.01 63.9531L1961.06 81.8592L1961.49 79.9063ZM1670.18 -130.391L1645.16 -209.532L1643.26 -208.929L1668.27 -129.789L1670.18 -130.391ZM1644.95 -208.555L1700.98 -269.79L1699.5 -271.14L1643.47 -209.906L1644.95 -208.555ZM1700.02 -269.489L1781.07 -251.582L1781.5 -253.535L1700.45 -271.441L1700.02 -269.489ZM1780.33 -252.258L1805.35 -173.117L1807.25 -173.72L1782.24 -252.86L1780.33 -252.258ZM1805.56 -174.093L1749.53 -112.859L1751.01 -111.509L1807.04 -172.743L1805.56 -174.093ZM1750.49 -113.16L1669.44 -131.066L1669.01 -129.114L1750.05 -111.208L1750.49 -113.16ZM1775.68 -33.858L1750.66 -112.999L1748.76 -112.396L1773.77 -33.2552L1775.68 -33.858ZM1750.45 -112.022L1806.48 -173.257L1805 -174.607L1748.97 -113.372L1750.45 -112.022ZM1805.52 -172.955L1886.57 -155.049L1887 -157.002L1805.96 -174.908L1805.52 -172.955ZM1885.83 -155.724L1910.85 -76.5836L1912.75 -77.1864L1887.74 -156.327L1885.83 -155.724ZM1911.06 -77.5601L1855.03 -16.3256L1856.51 -14.9755L1912.54 -76.21L1911.06 -77.5601ZM1855.99 -16.627L1774.94 -34.5331L1774.51 -32.5802L1855.55 -14.6741L1855.99 -16.627ZM1564.68 -226.925L1539.66 -306.065L1537.76 -305.462L1562.77 -226.322L1564.68 -226.925ZM1539.45 -305.089L1595.48 -366.323L1594 -367.673L1537.97 -306.439L1539.45 -305.089ZM1594.52 -366.022L1675.57 -348.116L1676 -350.069L1594.95 -367.975L1594.52 -366.022ZM1674.83 -348.791L1699.85 -269.65L1701.75 -270.253L1676.74 -349.394L1674.83 -348.791ZM1700.06 -270.627L1644.03 -209.392L1645.51 -208.042L1701.54 -269.277L1700.06 -270.627ZM1644.99 -209.694L1563.94 -227.6L1563.51 -225.647L1644.55 -207.741L1644.99 -209.694ZM1870.15 500.91L1845.13 421.769L1843.23 422.372L1868.24 501.513L1870.15 500.91ZM1844.92 422.746L1900.95 361.511L1899.47 360.161L1843.44 421.396L1844.92 422.746ZM1899.99 361.813L1981.04 379.719L1981.47 377.766L1900.43 359.86L1899.99 361.813ZM1980.3 379.044L2005.32 458.184L2007.22 457.581L1982.21 378.441L1980.3 379.044ZM2005.53 457.208L1949.5 518.442L1950.98 519.792L2007.01 458.558L2005.53 457.208ZM1950.46 518.141L1869.41 500.235L1868.98 502.188L1950.03 520.094L1950.46 518.141ZM1658.86 307.91L1633.84 228.769L1631.93 229.372L1656.95 308.513L1658.86 307.91ZM1633.62 229.746L1689.65 168.511L1688.18 167.161L1632.15 228.396L1633.62 229.746ZM1688.7 168.813L1769.75 186.719L1770.18 184.766L1689.13 166.86L1688.7 168.813ZM1769.01 186.044L1794.02 265.184L1795.93 264.581L1770.92 185.441L1769.01 186.044ZM1794.24 264.208L1738.21 325.442L1739.69 326.792L1795.72 265.558L1794.24 264.208ZM1739.16 325.141L1658.12 307.235L1657.69 309.188L1738.73 327.094L1739.16 325.141ZM1764.65 404.376L1739.63 325.236L1737.73 325.839L1762.74 404.979L1764.65 404.376ZM1739.42 326.212L1795.45 264.978L1793.97 263.628L1737.94 324.862L1739.42 326.212ZM1794.49 265.279L1875.54 283.185L1875.97 281.232L1794.93 263.326L1794.49 265.279ZM1874.8 282.51L1899.82 361.651L1901.72 361.048L1876.71 281.908L1874.8 282.51ZM1900.03 360.674L1844 421.909L1845.48 423.259L1901.51 362.024L1900.03 360.674ZM1844.96 421.607L1763.91 403.701L1763.48 405.654L1844.53 423.56L1844.96 421.607ZM1553.65 211.31L1528.63 132.169L1526.73 132.772L1551.74 211.912L1553.65 211.31ZM1528.42 133.146L1584.45 71.9112L1582.97 70.5611L1526.94 131.796L1528.42 133.146ZM1583.49 72.2126L1664.54 90.1186L1664.97 88.1657L1583.92 70.2597L1583.49 72.2126ZM1663.8 89.4436L1688.82 168.584L1690.72 167.981L1665.71 88.8408L1663.8 89.4436ZM1689.03 167.608L1633 228.842L1634.48 230.192L1690.51 168.958L1689.03 167.608ZM1633.96 228.541L1552.91 210.635L1552.48 212.588L1633.52 230.494L1633.96 228.541ZM1926.18 439.675L1901.16 360.535L1899.26 361.138L1924.27 440.278L1926.18 439.675ZM1900.95 361.511L1956.98 300.277L1955.5 298.927L1899.47 360.161L1900.95 361.511ZM1956.02 300.578L2037.07 318.484L2037.5 316.531L1956.46 298.625L1956.02 300.578ZM2036.33 317.809L2061.35 396.95L2063.25 396.347L2038.24 317.206L2036.33 317.809ZM2061.56 395.973L2005.53 457.208L2007.01 458.558L2063.04 397.323L2061.56 395.973ZM2006.49 456.906L1925.44 439L1925.01 440.953L2006.06 458.859L2006.49 456.906ZM1715.18 246.609L1690.16 167.468L1688.26 168.071L1713.27 247.211L1715.18 246.609ZM1689.95 168.445L1745.98 107.21L1744.5 105.86L1688.47 167.094L1689.95 168.445ZM1745.02 107.512L1826.07 125.418L1826.5 123.465L1745.45 105.559L1745.02 107.512ZM1825.33 124.742L1850.35 203.883L1852.25 203.28L1827.24 124.14L1825.33 124.742ZM1850.56 202.907L1794.53 264.141L1796.01 265.491L1852.04 204.257L1850.56 202.907ZM1795.49 263.84L1714.44 245.934L1714.01 247.886L1795.05 265.792L1795.49 263.84ZM1820.68 343.142L1795.66 264.001L1793.76 264.604L1818.77 343.745L1820.68 343.142ZM1795.45 264.978L1851.48 203.743L1850 202.393L1793.97 263.628L1795.45 264.978ZM1850.52 204.045L1931.57 221.951L1932 219.998L1850.96 202.092L1850.52 204.045ZM1930.83 221.276L1955.85 300.416L1957.75 299.814L1932.74 220.673L1930.83 221.276ZM1956.06 299.44L1900.03 360.674L1901.51 362.024L1957.54 300.79L1956.06 299.44ZM1900.99 360.373L1819.94 342.467L1819.51 344.42L1900.55 362.326L1900.99 360.373ZM1609.68 150.075L1584.66 70.9348L1582.76 71.5375L1607.77 150.678L1609.68 150.075ZM1584.45 71.9112L1640.48 10.6768L1639 9.32665L1582.97 70.5611L1584.45 71.9112ZM1639.52 10.9782L1720.57 28.8842L1721 26.9313L1639.95 9.02526L1639.52 10.9782ZM1719.83 28.2091L1744.85 107.35L1746.75 106.747L1721.74 27.6064L1719.83 28.2091ZM1745.06 106.373L1689.03 167.608L1690.51 168.958L1746.54 107.723L1745.06 106.373ZM1689.99 167.306L1608.94 149.4L1608.51 151.353L1689.55 169.259L1689.99 167.306Z" fill="#38343E" mask="url(#path-1-inside-1_1577_3)"/>
<mask id="path-3-inside-2_1577_3" fill="white">
<path d="M129.001 706.029L154.017 785.169L97.9871 846.404L16.9416 828.498L-8.07405 749.357L47.9558 688.123L129.001 706.029Z"/>
<path d="M340.294 899.029L365.31 978.169L309.28 1039.4L228.234 1021.5L203.219 942.357L259.249 881.123L340.294 899.029Z"/>
<path d="M234.502 802.562L259.517 881.703L203.487 942.937L122.442 925.031L97.4262 845.891L153.456 784.656L234.502 802.562Z"/>
<path d="M445.502 995.629L470.518 1074.77L414.488 1136L333.443 1118.1L308.427 1038.96L364.457 977.723L445.502 995.629Z"/>
<path d="M98.4131 846.116L123.429 925.256L67.3989 986.491L-13.6466 968.585L-38.6623 889.444L17.3676 828.21L98.4131 846.116Z"/>
<path d="M309.414 1039.18L334.429 1118.32L278.399 1179.56L197.354 1161.65L172.338 1082.51L228.368 1021.28L309.414 1039.18Z"/>
<path d="M203.913 942.649L228.929 1021.79L172.899 1083.02L91.8537 1065.12L66.838 985.978L122.868 924.743L203.913 942.649Z"/>
<path d="M414.914 1135.72L439.93 1214.86L383.9 1276.09L302.854 1258.18L277.839 1179.04L333.868 1117.81L414.914 1135.72Z"/>
<path d="M72.9715 767.263L97.9871 846.404L41.9573 907.638L-39.0882 889.732L-64.1039 810.592L-8.07405 749.357L72.9715 767.263Z"/>
<path d="M283.972 960.33L308.988 1039.47L252.958 1100.7L171.912 1082.8L146.897 1003.66L202.927 942.424L283.972 960.33Z"/>
<path d="M178.472 863.797L203.487 942.937L147.458 1004.17L66.412 986.266L41.3964 907.125L97.4262 845.891L178.472 863.797Z"/>
<path d="M389.472 1056.86L414.488 1136L358.458 1197.24L277.413 1179.33L252.397 1100.19L308.427 1038.96L389.472 1056.86Z"/>
<path d="M68.324 986.211L93.3396 1065.35L37.3098 1126.59L-43.7357 1108.68L-68.7514 1029.54L-12.7216 968.305L68.324 986.211Z"/>
<path d="M279.617 1179.21L304.632 1258.35L248.602 1319.59L167.557 1301.68L142.541 1222.54L198.571 1161.3L279.617 1179.21Z"/>
<path d="M173.824 1082.74L198.84 1161.88L142.81 1223.12L61.7645 1205.21L36.7489 1126.07L92.7787 1064.84L173.824 1082.74Z"/>
<path d="M384.825 1275.81L409.841 1354.95L353.811 1416.19L272.765 1398.28L247.749 1319.14L303.779 1257.9L384.825 1275.81Z"/>
<path d="M12.2941 1047.45L37.3098 1126.59L-18.7201 1187.82L-99.7656 1169.91L-124.781 1090.77L-68.7514 1029.54L12.2941 1047.45Z"/>
<path d="M223.295 1240.51L248.31 1319.65L192.28 1380.89L111.235 1362.98L86.2193 1283.84L142.249 1222.61L223.295 1240.51Z"/>
<path d="M117.794 1143.98L142.81 1223.12L86.7802 1284.35L5.7347 1266.45L-19.281 1187.31L36.7489 1126.07L117.794 1143.98Z"/>
<path d="M328.795 1337.05L353.811 1416.19L297.781 1477.42L216.735 1459.51L191.72 1380.37L247.749 1319.14L328.795 1337.05Z"/>
<path d="M23.324 609.211L48.3396 688.351L-7.69025 749.586L-88.7357 731.68L-113.751 652.539L-57.7215 591.305L23.324 609.211Z"/>
<path d="M234.617 802.211L259.632 881.351L203.602 942.586L122.557 924.68L97.5413 845.539L153.571 784.305L234.617 802.211Z"/>
<path d="M128.824 705.744L153.84 784.885L97.8101 846.119L16.7645 828.213L-8.25111 749.072L47.7787 687.838L128.824 705.744Z"/>
<path d="M339.825 898.811L364.841 977.951L308.811 1039.19L227.765 1021.28L202.749 942.139L258.779 880.905L339.825 898.811Z"/>
<path d="M-32.7059 670.445L-7.69025 749.586L-63.7201 810.82L-144.766 792.914L-169.781 713.774L-113.751 652.539L-32.7059 670.445Z"/>
<path d="M178.295 863.512L203.31 942.652L147.28 1003.89L66.235 985.981L41.2193 906.84L97.2492 845.606L178.295 863.512Z"/>
<path d="M72.7944 766.979L97.8101 846.119L41.7802 907.353L-39.2653 889.447L-64.281 810.307L-8.25111 749.072L72.7944 766.979Z"/>
<path d="M283.795 960.045L308.811 1039.19L252.781 1100.42L171.735 1082.51L146.72 1003.37L202.749 942.139L283.795 960.045Z"/>
</mask>
<path d="M284 960.999L340 899.999L339.263 899.323L283.263 960.323L284 960.999ZM11.9999 1049L66.9999 986.999L66.2519 986.335L11.2519 1048.34L11.9999 1049ZM178 864.999L234 802.999L233.258 802.329L177.258 864.329L178 864.999ZM72.9999 767.999L129 706.999L128.263 706.323L72.2633 767.323L72.9999 767.999ZM389 1058L446 996.999L445.269 996.316L388.269 1057.32L389 1058ZM129.001 706.029L129.955 705.728L129.781 705.177L129.217 705.052L129.001 706.029ZM154.017 785.169L154.755 785.844L155.144 785.419L154.97 784.868L154.017 785.169ZM97.9871 846.404L98.7249 847.079L98.7249 847.079L97.9871 846.404ZM16.9416 828.498L15.9881 828.799L16.1621 829.35L16.7259 829.474L16.9416 828.498ZM47.9558 688.123L48.1715 687.146L47.6078 687.022L47.218 687.448L47.9558 688.123ZM340.294 899.029L341.248 898.728L341.074 898.177L340.51 898.052L340.294 899.029ZM365.31 978.169L366.047 978.844L366.437 978.419L366.263 977.868L365.31 978.169ZM309.28 1039.4L309.064 1040.38L309.628 1040.5L310.018 1040.08L309.28 1039.4ZM228.234 1021.5L227.281 1021.8L227.455 1022.35L228.019 1022.47L228.234 1021.5ZM203.219 942.357L202.481 941.682L202.091 942.108L202.265 942.659L203.219 942.357ZM259.249 881.123L259.464 880.146L258.901 880.022L258.511 880.448L259.249 881.123ZM234.502 802.562L235.455 802.261L235.281 801.71L234.717 801.586L234.502 802.562ZM259.517 881.703L260.255 882.378L260.645 881.952L260.471 881.401L259.517 881.703ZM122.442 925.031L121.488 925.333L121.662 925.883L122.226 926.008L122.442 925.031ZM153.456 784.656L153.672 783.68L153.108 783.555L152.718 783.981L153.456 784.656ZM445.502 995.629L446.456 995.328L446.282 994.777L445.718 994.653L445.502 995.629ZM470.518 1074.77L471.256 1075.44L471.645 1075.02L471.471 1074.47L470.518 1074.77ZM333.443 1118.1L332.489 1118.4L332.663 1118.95L333.227 1119.07L333.443 1118.1ZM364.457 977.723L364.672 976.746L364.109 976.622L363.719 977.048L364.457 977.723ZM98.4131 846.116L99.3666 845.815L99.1926 845.264L98.6288 845.139L98.4131 846.116ZM123.429 925.256L124.167 925.931L124.556 925.505L124.382 924.955L123.429 925.256ZM67.3989 986.491L67.1832 987.467L67.7469 987.592L68.1367 987.166L67.3989 986.491ZM-13.6466 968.585L-14.6001 968.886L-14.4261 969.437L-13.8623 969.561L-13.6466 968.585ZM-38.6623 889.444L-39.4 888.769L-39.7898 889.195L-39.6158 889.746L-38.6623 889.444ZM17.3676 828.21L17.5833 827.233L17.0196 827.109L16.6298 827.535L17.3676 828.21ZM309.414 1039.18L310.367 1038.88L310.193 1038.33L309.629 1038.21L309.414 1039.18ZM334.429 1118.32L335.167 1119L335.557 1118.57L335.383 1118.02L334.429 1118.32ZM278.399 1179.56L278.184 1180.53L278.747 1180.66L279.137 1180.23L278.399 1179.56ZM197.354 1161.65L196.4 1161.95L196.574 1162.5L197.138 1162.63L197.354 1161.65ZM172.338 1082.51L171.601 1081.84L171.211 1082.26L171.385 1082.81L172.338 1082.51ZM228.368 1021.28L228.584 1020.3L228.02 1020.18L227.63 1020.6L228.368 1021.28ZM203.913 942.649L204.867 942.348L204.693 941.797L204.129 941.673L203.913 942.649ZM228.929 1021.79L229.667 1022.46L230.057 1022.04L229.883 1021.49L228.929 1021.79ZM172.899 1083.02L172.683 1084L173.247 1084.13L173.637 1083.7L172.899 1083.02ZM91.8537 1065.12L90.9002 1065.42L91.0742 1065.97L91.638 1066.09L91.8537 1065.12ZM66.838 985.978L66.1003 985.303L65.7105 985.729L65.8845 986.279L66.838 985.978ZM122.868 924.743L123.084 923.767L122.52 923.642L122.13 924.068L122.868 924.743ZM414.914 1135.72L415.868 1135.41L415.693 1134.86L415.13 1134.74L414.914 1135.72ZM439.93 1214.86L440.667 1215.53L441.057 1215.11L440.883 1214.56L439.93 1214.86ZM383.9 1276.09L383.684 1277.07L384.248 1277.19L384.638 1276.77L383.9 1276.09ZM302.854 1258.18L301.901 1258.49L302.075 1259.04L302.639 1259.16L302.854 1258.18ZM277.839 1179.04L277.101 1178.37L276.711 1178.8L276.885 1179.35L277.839 1179.04ZM333.868 1117.81L334.084 1116.83L333.52 1116.71L333.131 1117.13L333.868 1117.81ZM72.9715 767.263L73.925 766.962L73.7509 766.411L73.1872 766.287L72.9715 767.263ZM41.9573 907.638L41.7415 908.615L42.3053 908.739L42.695 908.313L41.9573 907.638ZM-39.0882 889.732L-40.0417 890.034L-39.8677 890.584L-39.304 890.709L-39.0882 889.732ZM-64.1039 810.592L-64.8417 809.917L-65.2314 810.343L-65.0574 810.893L-64.1039 810.592ZM283.972 960.33L284.926 960.029L284.752 959.478L284.188 959.354L283.972 960.33ZM308.988 1039.47L309.725 1040.15L310.115 1039.72L309.941 1039.17L308.988 1039.47ZM252.958 1100.7L252.742 1101.68L253.306 1101.81L253.696 1101.38L252.958 1100.7ZM171.912 1082.8L170.959 1083.1L171.133 1083.65L171.697 1083.78L171.912 1082.8ZM146.897 1003.66L146.159 1002.98L145.769 1003.41L145.943 1003.96L146.897 1003.66ZM202.927 942.424L203.142 941.448L202.579 941.323L202.189 941.749L202.927 942.424ZM178.472 863.797L179.425 863.495L179.251 862.945L178.687 862.82L178.472 863.797ZM147.458 1004.17L147.242 1005.15L147.806 1005.27L148.195 1004.85L147.458 1004.17ZM66.412 986.266L65.4585 986.567L65.6326 987.117L66.1963 987.242L66.412 986.266ZM41.3964 907.125L40.6586 906.45L40.2689 906.876L40.4429 907.426L41.3964 907.125ZM389.472 1056.86L390.426 1056.56L390.252 1056.01L389.688 1055.89L389.472 1056.86ZM358.458 1197.24L358.242 1198.21L358.806 1198.34L359.196 1197.91L358.458 1197.24ZM277.413 1179.33L276.459 1179.63L276.633 1180.18L277.197 1180.31L277.413 1179.33ZM252.397 1100.19L251.659 1099.52L251.269 1099.94L251.443 1100.49L252.397 1100.19ZM68.324 986.211L69.2775 985.909L69.1034 985.359L68.5397 985.234L68.324 986.211ZM93.3396 1065.35L94.0774 1066.03L94.4671 1065.6L94.2931 1065.05L93.3396 1065.35ZM37.3098 1126.59L38.0475 1127.26L38.0475 1127.26L37.3098 1126.59ZM-43.7357 1108.68L-44.6892 1108.98L-44.5152 1109.53L-43.9515 1109.66L-43.7357 1108.68ZM-12.7216 968.305L-12.5058 967.328L-13.0696 967.204L-13.4593 967.63L-12.7216 968.305ZM279.617 1179.21L280.57 1178.91L280.396 1178.36L279.832 1178.23L279.617 1179.21ZM304.632 1258.35L305.37 1259.03L305.76 1258.6L305.586 1258.05L304.632 1258.35ZM248.602 1319.59L248.387 1320.56L248.95 1320.69L249.34 1320.26L248.602 1319.59ZM167.557 1301.68L166.603 1301.98L166.777 1302.53L167.341 1302.66L167.557 1301.68ZM142.541 1222.54L141.804 1221.86L141.414 1222.29L141.588 1222.84L142.541 1222.54ZM198.571 1161.3L198.787 1160.33L198.223 1160.2L197.833 1160.63L198.571 1161.3ZM173.824 1082.74L174.778 1082.44L174.604 1081.89L174.04 1081.77L173.824 1082.74ZM198.84 1161.88L199.578 1162.56L199.967 1162.13L199.793 1161.58L198.84 1161.88ZM61.7645 1205.21L60.811 1205.51L60.9851 1206.06L61.5488 1206.19L61.7645 1205.21ZM36.7489 1126.07L36.0111 1125.4L36.0111 1125.4L36.7489 1126.07ZM92.7787 1064.84L92.9945 1063.86L92.4307 1063.74L92.041 1064.16L92.7787 1064.84ZM384.825 1275.81L385.778 1275.51L385.604 1274.96L385.041 1274.83L384.825 1275.81ZM409.841 1354.95L410.578 1355.63L410.968 1355.2L410.794 1354.65L409.841 1354.95ZM353.811 1416.19L354.548 1416.86L354.548 1416.86L353.811 1416.19ZM272.765 1398.28L271.812 1398.58L271.986 1399.13L272.549 1399.26L272.765 1398.28ZM303.779 1257.9L303.995 1256.93L303.431 1256.8L303.042 1257.23L303.779 1257.9ZM12.2941 1047.45L13.2476 1047.14L13.0736 1046.59L12.5098 1046.47L12.2941 1047.45ZM-18.7201 1187.82L-18.9358 1188.8L-18.3721 1188.92L-17.9823 1188.5L-18.7201 1187.82ZM-99.7656 1169.91L-100.719 1170.22L-100.545 1170.77L-99.9813 1170.89L-99.7656 1169.91ZM-124.781 1090.77L-125.519 1090.1L-125.909 1090.52L-125.735 1091.07L-124.781 1090.77ZM223.295 1240.51L224.248 1240.21L224.074 1239.66L223.51 1239.54L223.295 1240.51ZM248.31 1319.65L249.048 1320.33L249.438 1319.9L249.264 1319.35L248.31 1319.65ZM192.28 1380.89L192.065 1381.86L192.629 1381.99L193.018 1381.56L192.28 1380.89ZM111.235 1362.98L110.281 1363.28L110.455 1363.83L111.019 1363.96L111.235 1362.98ZM86.2193 1283.84L85.4816 1283.17L85.0918 1283.59L85.2658 1284.14L86.2193 1283.84ZM142.249 1222.61L142.465 1221.63L141.901 1221.5L141.511 1221.93L142.249 1222.61ZM117.794 1143.98L118.748 1143.68L118.574 1143.13L118.01 1143L117.794 1143.98ZM86.7802 1284.35L86.5645 1285.33L87.1282 1285.45L87.518 1285.03L86.7802 1284.35ZM5.7347 1266.45L4.7812 1266.75L4.95521 1267.3L5.51896 1267.42L5.7347 1266.45ZM-19.281 1187.31L-20.0187 1186.63L-20.4085 1187.06L-20.2345 1187.61L-19.281 1187.31ZM328.795 1337.05L329.748 1336.74L329.574 1336.19L329.011 1336.07L328.795 1337.05ZM297.781 1477.42L297.565 1478.4L298.129 1478.52L298.519 1478.1L297.781 1477.42ZM216.735 1459.51L215.782 1459.82L215.956 1460.37L216.52 1460.49L216.735 1459.51ZM191.72 1380.37L190.982 1379.7L190.592 1380.12L190.766 1380.67L191.72 1380.37ZM23.324 609.211L24.2775 608.909L24.1034 608.359L23.5397 608.234L23.324 609.211ZM48.3396 688.351L49.0774 689.026L49.4671 688.6L49.2931 688.05L48.3396 688.351ZM-88.7357 731.68L-89.6892 731.981L-89.5152 732.532L-88.9515 732.656L-88.7357 731.68ZM-113.751 652.539L-114.489 651.864L-114.489 651.864L-113.751 652.539ZM-57.7215 591.305L-57.5058 590.328L-58.0696 590.204L-58.4593 590.63L-57.7215 591.305ZM234.617 802.211L235.57 801.909L235.396 801.359L234.832 801.234L234.617 802.211ZM259.632 881.351L260.37 882.026L260.76 881.6L260.586 881.05L259.632 881.351ZM203.602 942.586L203.387 943.562L203.95 943.687L204.34 943.261L203.602 942.586ZM122.557 924.68L121.603 924.981L121.777 925.532L122.341 925.656L122.557 924.68ZM97.5413 845.539L96.8036 844.864L96.4138 845.29L96.5878 845.841L97.5413 845.539ZM153.571 784.305L153.787 783.328L153.223 783.204L152.833 783.63L153.571 784.305ZM128.824 705.744L129.778 705.443L129.604 704.892L129.04 704.768L128.824 705.744ZM153.84 784.885L154.578 785.56L154.967 785.134L154.793 784.583L153.84 784.885ZM97.8101 846.119L98.5478 846.794L98.5478 846.794L97.8101 846.119ZM16.7645 828.213L15.811 828.514L15.9851 829.065L16.5488 829.189L16.7645 828.213ZM-8.25111 749.072L-8.98888 748.397L-8.98888 748.397L-8.25111 749.072ZM47.7787 687.838L47.9945 686.862L47.4307 686.737L47.041 687.163L47.7787 687.838ZM339.825 898.811L340.778 898.509L340.604 897.959L340.041 897.834L339.825 898.811ZM364.841 977.951L365.578 978.626L365.968 978.2L365.794 977.65L364.841 977.951ZM227.765 1021.28L226.812 1021.58L226.986 1022.13L227.549 1022.26L227.765 1021.28ZM258.779 880.905L258.995 879.928L258.431 879.804L258.042 880.23L258.779 880.905ZM-32.7059 670.445L-31.7524 670.144L-31.9264 669.593L-32.4902 669.469L-32.7059 670.445ZM-63.7201 810.82L-63.9358 811.797L-63.3721 811.921L-62.9823 811.495L-63.7201 810.82ZM-144.766 792.914L-145.719 793.215L-145.545 793.766L-144.981 793.89L-144.766 792.914ZM-169.781 713.774L-170.519 713.099L-170.909 713.524L-170.735 714.075L-169.781 713.774ZM178.295 863.512L179.248 863.211L179.074 862.66L178.51 862.535L178.295 863.512ZM203.31 942.652L204.048 943.327L204.438 942.901L204.264 942.351L203.31 942.652ZM147.28 1003.89L147.065 1004.86L147.629 1004.99L148.018 1004.56L147.28 1003.89ZM66.235 985.981L65.2815 986.282L65.4555 986.833L66.0193 986.957L66.235 985.981ZM41.2193 906.84L40.4816 906.165L40.0918 906.591L40.2658 907.142L41.2193 906.84ZM97.2492 845.606L97.4649 844.629L96.9012 844.505L96.5114 844.931L97.2492 845.606ZM72.7944 766.979L73.7479 766.677L73.5739 766.127L73.0101 766.002L72.7944 766.979ZM41.7802 907.353L41.5645 908.33L42.1282 908.454L42.518 908.029L41.7802 907.353ZM-39.2653 889.447L-40.2188 889.749L-40.0448 890.299L-39.481 890.424L-39.2653 889.447ZM-64.281 810.307L-65.0187 809.632L-65.4085 810.058L-65.2345 810.608L-64.281 810.307ZM283.795 960.045L284.748 959.744L284.574 959.193L284.011 959.069L283.795 960.045ZM252.781 1100.42L252.565 1101.4L253.129 1101.52L253.519 1101.1L252.781 1100.42ZM171.735 1082.51L170.782 1082.82L170.956 1083.37L171.52 1083.49L171.735 1082.51ZM146.72 1003.37L145.982 1002.7L145.592 1003.12L145.766 1003.68L146.72 1003.37ZM128.048 706.33L153.063 785.471L154.97 784.868L129.955 705.728L128.048 706.33ZM153.279 784.494L97.2494 845.729L98.7249 847.079L154.755 785.844L153.279 784.494ZM98.2029 845.427L17.1573 827.521L16.7259 829.474L97.7714 847.38L98.2029 845.427ZM17.8951 828.196L-7.12055 749.056L-9.02755 749.659L15.9881 828.799L17.8951 828.196ZM-7.33629 750.032L48.6936 688.798L47.218 687.448L-8.81182 748.682L-7.33629 750.032ZM47.7401 689.099L128.786 707.005L129.217 705.052L48.1715 687.146L47.7401 689.099ZM339.341 899.33L364.356 978.471L366.263 977.868L341.248 898.728L339.341 899.33ZM364.572 977.494L308.542 1038.73L310.018 1040.08L366.047 978.844L364.572 977.494ZM309.496 1038.43L228.45 1020.52L228.019 1022.47L309.064 1040.38L309.496 1038.43ZM229.188 1021.2L204.172 942.056L202.265 942.659L227.281 1021.8L229.188 1021.2ZM203.956 943.032L259.986 881.798L258.511 880.448L202.481 941.682L203.956 943.032ZM259.033 882.099L340.078 900.005L340.51 898.052L259.464 880.146L259.033 882.099ZM233.548 802.864L258.564 882.004L260.471 881.401L235.455 802.261L233.548 802.864ZM258.779 881.028L202.75 942.262L204.225 943.612L260.255 882.378L258.779 881.028ZM203.703 941.961L122.658 924.055L122.226 926.008L203.272 943.914L203.703 941.961ZM123.395 924.73L98.3797 845.589L96.4727 846.192L121.488 925.333L123.395 924.73ZM98.164 846.566L154.194 785.331L152.718 783.981L96.6885 845.216L98.164 846.566ZM153.24 785.633L234.286 803.539L234.717 801.586L153.672 783.68L153.24 785.633ZM444.549 995.93L469.564 1075.07L471.471 1074.47L446.456 995.328L444.549 995.93ZM469.78 1074.09L413.75 1135.33L415.226 1136.68L471.256 1075.44L469.78 1074.09ZM414.704 1135.03L333.658 1117.12L333.227 1119.07L414.272 1136.98L414.704 1135.03ZM334.396 1117.8L309.38 1038.66L307.473 1039.26L332.489 1118.4L334.396 1117.8ZM309.165 1039.63L365.194 978.398L363.719 977.048L307.689 1038.28L309.165 1039.63ZM364.241 978.699L445.286 996.605L445.718 994.653L364.672 976.746L364.241 978.699ZM97.4596 846.417L122.475 925.558L124.382 924.955L99.3666 845.815L97.4596 846.417ZM122.691 924.581L66.6611 985.816L68.1367 987.166L124.167 925.931L122.691 924.581ZM67.6146 985.514L-13.4309 967.608L-13.8623 969.561L67.1832 987.467L67.6146 985.514ZM-12.6931 968.283L-37.7088 889.143L-39.6158 889.746L-14.6001 968.886L-12.6931 968.283ZM-37.9245 890.119L18.1053 828.885L16.6298 827.535L-39.4 888.769L-37.9245 890.119ZM17.1518 829.186L98.1974 847.092L98.6288 845.139L17.5833 827.233L17.1518 829.186ZM308.46 1039.48L333.476 1118.62L335.383 1118.02L310.367 1038.88L308.46 1039.48ZM333.692 1117.65L277.662 1178.88L279.137 1180.23L335.167 1119L333.692 1117.65ZM278.615 1178.58L197.57 1160.68L197.138 1162.63L278.184 1180.53L278.615 1178.58ZM198.307 1161.35L173.292 1082.21L171.385 1082.81L196.4 1161.95L198.307 1161.35ZM173.076 1083.19L229.106 1021.95L227.63 1020.6L171.601 1081.84L173.076 1083.19ZM228.152 1022.25L309.198 1040.16L309.629 1038.21L228.584 1020.3L228.152 1022.25ZM202.96 942.951L227.976 1022.09L229.883 1021.49L204.867 942.348L202.96 942.951ZM228.191 1021.11L172.161 1082.35L173.637 1083.7L229.667 1022.46L228.191 1021.11ZM173.115 1082.05L92.0694 1064.14L91.638 1066.09L172.683 1084L173.115 1082.05ZM92.8072 1064.82L67.7915 985.676L65.8845 986.279L90.9002 1065.42L92.8072 1064.82ZM67.5758 986.653L123.606 925.418L122.13 924.068L66.1003 985.303L67.5758 986.653ZM122.652 925.72L203.698 943.626L204.129 941.673L123.084 923.767L122.652 925.72ZM413.961 1136.02L438.976 1215.16L440.883 1214.56L415.868 1135.41L413.961 1136.02ZM439.192 1214.18L383.162 1275.42L384.638 1276.77L440.667 1215.53L439.192 1214.18ZM384.116 1275.11L303.07 1257.21L302.639 1259.16L383.684 1277.07L384.116 1275.11ZM303.808 1257.88L278.792 1178.74L276.885 1179.35L301.901 1258.49L303.808 1257.88ZM278.576 1179.72L334.606 1118.48L333.131 1117.13L277.101 1178.37L278.576 1179.72ZM333.653 1118.79L414.698 1136.69L415.13 1134.74L334.084 1116.83L333.653 1118.79ZM72.018 767.565L97.0336 846.705L98.9406 846.102L73.925 766.962L72.018 767.565ZM97.2494 845.729L41.2195 906.963L42.695 908.313L98.7249 847.079L97.2494 845.729ZM42.173 906.662L-38.8725 888.756L-39.304 890.709L41.7415 908.615L42.173 906.662ZM-38.1347 889.431L-63.1504 810.29L-65.0574 810.893L-40.0417 890.034L-38.1347 889.431ZM-63.3661 811.267L-7.33629 750.032L-8.81182 748.682L-64.8417 809.917L-63.3661 811.267ZM-8.28979 750.334L72.7557 768.24L73.1872 766.287L-7.85832 748.381L-8.28979 750.334ZM283.019 960.631L308.034 1039.77L309.941 1039.17L284.926 960.029L283.019 960.631ZM308.25 1038.8L252.22 1100.03L253.696 1101.38L309.725 1040.15L308.25 1038.8ZM253.174 1099.73L172.128 1081.82L171.697 1083.78L252.742 1101.68L253.174 1099.73ZM172.866 1082.5L147.85 1003.36L145.943 1003.96L170.959 1083.1L172.866 1082.5ZM147.634 1004.33L203.664 943.099L202.189 941.749L146.159 1002.98L147.634 1004.33ZM202.711 943.4L283.756 961.307L284.188 959.354L203.142 941.448L202.711 943.4ZM177.518 864.098L202.534 943.239L204.441 942.636L179.425 863.495L177.518 864.098ZM202.75 942.262L146.72 1003.5L148.195 1004.85L204.225 943.612L202.75 942.262ZM147.673 1003.2L66.6278 985.289L66.1963 987.242L147.242 1005.15L147.673 1003.2ZM67.3655 985.964L42.3499 906.824L40.4429 907.426L65.4585 986.567L67.3655 985.964ZM42.1342 907.8L98.164 846.566L96.6885 845.216L40.6586 906.45L42.1342 907.8ZM97.2105 846.867L178.256 864.773L178.687 862.82L97.642 844.914L97.2105 846.867ZM388.519 1057.16L413.534 1136.31L415.441 1135.7L390.426 1056.56L388.519 1057.16ZM413.75 1135.33L357.72 1196.56L359.196 1197.91L415.226 1136.68L413.75 1135.33ZM358.674 1196.26L277.628 1178.36L277.197 1180.31L358.242 1198.21L358.674 1196.26ZM278.366 1179.03L253.35 1099.89L251.443 1100.49L276.459 1179.63L278.366 1179.03ZM253.135 1100.87L309.165 1039.63L307.689 1038.28L251.659 1099.52L253.135 1100.87ZM308.211 1039.93L389.257 1057.84L389.688 1055.89L308.643 1037.98L308.211 1039.93ZM67.3705 986.512L92.3861 1065.65L94.2931 1065.05L69.2775 985.909L67.3705 986.512ZM92.6018 1064.68L36.572 1125.91L38.0475 1127.26L94.0774 1066.03L92.6018 1064.68ZM37.5255 1125.61L-43.52 1107.7L-43.9515 1109.66L37.094 1127.56L37.5255 1125.61ZM-42.7822 1108.38L-67.7979 1029.24L-69.7049 1029.84L-44.6892 1108.98L-42.7822 1108.38ZM-68.0136 1030.21L-11.9838 968.98L-13.4593 967.63L-69.4892 1028.86L-68.0136 1030.21ZM-12.9373 969.281L68.1082 987.187L68.5397 985.234L-12.5058 967.328L-12.9373 969.281ZM278.663 1179.51L303.679 1258.65L305.586 1258.05L280.57 1178.91L278.663 1179.51ZM303.895 1257.68L247.865 1318.91L249.34 1320.26L305.37 1259.03L303.895 1257.68ZM248.818 1318.61L167.773 1300.7L167.341 1302.66L248.387 1320.56L248.818 1318.61ZM168.51 1301.38L143.495 1222.24L141.588 1222.84L166.603 1301.98L168.51 1301.38ZM143.279 1223.21L199.309 1161.98L197.833 1160.63L141.804 1221.86L143.279 1223.21ZM198.355 1162.28L279.401 1180.19L279.832 1178.23L198.787 1160.33L198.355 1162.28ZM172.871 1083.05L197.886 1162.19L199.793 1161.58L174.778 1082.44L172.871 1083.05ZM198.102 1161.21L142.072 1222.44L143.548 1223.79L199.578 1162.56L198.102 1161.21ZM143.026 1222.14L61.9803 1204.24L61.5488 1206.19L142.594 1224.1L143.026 1222.14ZM62.718 1204.91L37.7024 1125.77L35.7954 1126.37L60.811 1205.51L62.718 1204.91ZM37.4867 1126.75L93.5165 1065.51L92.041 1064.16L36.0111 1125.4L37.4867 1126.75ZM92.563 1065.81L173.609 1083.72L174.04 1081.77L92.9945 1063.86L92.563 1065.81ZM383.871 1276.11L408.887 1355.25L410.794 1354.65L385.778 1275.51L383.871 1276.11ZM409.103 1354.28L353.073 1415.51L354.548 1416.86L410.578 1355.63L409.103 1354.28ZM354.026 1415.21L272.981 1397.3L272.549 1399.26L353.595 1417.16L354.026 1415.21ZM273.719 1397.98L248.703 1318.84L246.796 1319.44L271.812 1398.58L273.719 1397.98ZM248.487 1319.81L304.517 1258.58L303.042 1257.23L247.012 1318.46L248.487 1319.81ZM303.564 1258.88L384.609 1276.79L385.041 1274.83L303.995 1256.93L303.564 1258.88ZM11.3406 1047.75L36.3563 1126.89L38.2633 1126.28L13.2476 1047.14L11.3406 1047.75ZM36.572 1125.91L-19.4579 1187.15L-17.9823 1188.5L38.0475 1127.26L36.572 1125.91ZM-18.5044 1186.84L-99.5499 1168.94L-99.9813 1170.89L-18.9358 1188.8L-18.5044 1186.84ZM-98.8121 1169.61L-123.828 1090.47L-125.735 1091.07L-100.719 1170.22L-98.8121 1169.61ZM-124.043 1091.45L-68.0136 1030.21L-69.4892 1028.86L-125.519 1090.1L-124.043 1091.45ZM-68.9671 1030.52L12.0784 1048.42L12.5098 1046.47L-68.5357 1028.56L-68.9671 1030.52ZM222.341 1240.81L247.357 1319.95L249.264 1319.35L224.248 1240.21L222.341 1240.81ZM247.573 1318.98L191.543 1380.21L193.018 1381.56L249.048 1320.33L247.573 1318.98ZM192.496 1379.91L111.451 1362L111.019 1363.96L192.065 1381.86L192.496 1379.91ZM112.188 1362.68L87.1728 1283.54L85.2658 1284.14L110.281 1363.28L112.188 1362.68ZM86.9571 1284.52L142.987 1223.28L141.511 1221.93L85.4816 1283.17L86.9571 1284.52ZM142.033 1223.58L223.079 1241.49L223.51 1239.54L142.465 1221.63L142.033 1223.58ZM116.841 1144.28L141.857 1223.42L143.764 1222.82L118.748 1143.68L116.841 1144.28ZM142.072 1222.44L86.0424 1283.68L87.518 1285.03L143.548 1223.79L142.072 1222.44ZM86.9959 1283.38L5.95043 1265.47L5.51896 1267.42L86.5645 1285.33L86.9959 1283.38ZM6.6882 1266.15L-18.3275 1187.01L-20.2345 1187.61L4.7812 1266.75L6.6882 1266.15ZM-18.5432 1187.98L37.4867 1126.75L36.0111 1125.4L-20.0187 1186.63L-18.5432 1187.98ZM36.5332 1127.05L117.579 1144.95L118.01 1143L36.9646 1125.1L36.5332 1127.05ZM327.841 1337.35L352.857 1416.49L354.764 1415.88L329.748 1336.74L327.841 1337.35ZM353.073 1415.51L297.043 1476.75L298.519 1478.1L354.548 1416.86L353.073 1415.51ZM297.997 1476.44L216.951 1458.54L216.52 1460.49L297.565 1478.4L297.997 1476.44ZM217.689 1459.21L192.673 1380.07L190.766 1380.67L215.782 1459.82L217.689 1459.21ZM192.457 1381.05L248.487 1319.81L247.012 1318.46L190.982 1379.7L192.457 1381.05ZM247.534 1320.12L328.579 1338.02L329.011 1336.07L247.965 1318.16L247.534 1320.12ZM22.3705 609.512L47.3861 688.653L49.2931 688.05L24.2775 608.909L22.3705 609.512ZM47.6019 687.676L-8.42801 748.911L-6.95248 750.261L49.0774 689.026L47.6019 687.676ZM-7.47451 748.609L-88.52 730.703L-88.9515 732.656L-7.90598 750.562L-7.47451 748.609ZM-87.7822 731.378L-112.798 652.238L-114.705 652.841L-89.6892 731.981L-87.7822 731.378ZM-113.014 653.214L-56.9838 591.98L-58.4593 590.63L-114.489 651.864L-113.014 653.214ZM-57.9373 592.281L23.1082 610.187L23.5397 608.234L-57.5058 590.328L-57.9373 592.281ZM233.663 802.512L258.679 881.653L260.586 881.05L235.57 801.909L233.663 802.512ZM258.895 880.676L202.865 941.911L204.34 943.261L260.37 882.026L258.895 880.676ZM203.818 941.609L122.773 923.703L122.341 925.656L203.387 943.562L203.818 941.609ZM123.51 924.378L98.4948 845.238L96.5878 845.841L121.603 924.981L123.51 924.378ZM98.2791 846.214L154.309 784.98L152.833 783.63L96.8036 844.864L98.2791 846.214ZM153.355 785.281L234.401 803.187L234.832 801.234L153.787 783.328L153.355 785.281ZM127.871 706.045L152.886 785.186L154.793 784.583L129.778 705.443L127.871 706.045ZM153.102 784.21L97.0723 845.444L98.5478 846.794L154.578 785.56L153.102 784.21ZM98.0258 845.143L16.9803 827.237L16.5488 829.189L97.5943 847.095L98.0258 845.143ZM17.718 827.912L-7.29761 748.771L-9.20461 749.374L15.811 828.514L17.718 827.912ZM-7.51335 749.748L48.5165 688.513L47.041 687.163L-8.98888 748.397L-7.51335 749.748ZM47.563 688.814L128.609 706.721L129.04 704.768L47.9945 686.862L47.563 688.814ZM338.871 899.112L363.887 978.253L365.794 977.65L340.778 898.509L338.871 899.112ZM364.103 977.276L308.073 1038.51L309.548 1039.86L365.578 978.626L364.103 977.276ZM309.026 1038.21L227.981 1020.3L227.549 1022.26L308.595 1040.16L309.026 1038.21ZM228.719 1020.98L203.703 941.838L201.796 942.441L226.812 1021.58L228.719 1020.98ZM203.487 942.814L259.517 881.58L258.042 880.23L202.012 941.464L203.487 942.814ZM258.564 881.881L339.609 899.787L340.041 897.834L258.995 879.928L258.564 881.881ZM-33.6594 670.747L-8.64375 749.887L-6.73675 749.284L-31.7524 670.144L-33.6594 670.747ZM-8.42801 748.911L-64.4579 810.145L-62.9823 811.495L-6.95248 750.261L-8.42801 748.911ZM-63.5044 809.844L-144.55 791.938L-144.981 793.89L-63.9358 811.797L-63.5044 809.844ZM-143.812 792.613L-168.828 713.472L-170.735 714.075L-145.719 793.215L-143.812 792.613ZM-169.043 714.449L-113.014 653.214L-114.489 651.864L-170.519 713.099L-169.043 714.449ZM-113.967 653.516L-32.9216 671.422L-32.4902 669.469L-113.536 651.563L-113.967 653.516ZM177.341 863.813L202.357 942.954L204.264 942.351L179.248 863.211L177.341 863.813ZM202.573 941.977L146.543 1003.21L148.018 1004.56L204.048 943.327L202.573 941.977ZM147.496 1002.91L66.4507 985.004L66.0193 986.957L147.065 1004.86L147.496 1002.91ZM67.1885 985.679L42.1728 906.539L40.2658 907.142L65.2815 986.282L67.1885 985.679ZM41.9571 907.515L97.9869 846.281L96.5114 844.931L40.4816 906.165L41.9571 907.515ZM97.0334 846.582L178.079 864.488L178.51 862.535L97.4649 844.629L97.0334 846.582ZM71.8409 767.28L96.8566 846.42L98.7636 845.818L73.7479 766.677L71.8409 767.28ZM97.0723 845.444L41.0424 906.678L42.518 908.029L98.5478 846.794L97.0723 845.444ZM41.9959 906.377L-39.0496 888.471L-39.481 890.424L41.5645 908.33L41.9959 906.377ZM-38.3118 889.146L-63.3275 810.006L-65.2345 810.608L-40.2188 889.749L-38.3118 889.146ZM-63.5432 810.982L-7.51335 749.748L-8.98888 748.397L-65.0187 809.632L-63.5432 810.982ZM-8.46685 750.049L72.5787 767.955L73.0101 766.002L-8.03538 748.096L-8.46685 750.049ZM282.841 960.347L307.857 1039.49L309.764 1038.88L284.748 959.744L282.841 960.347ZM308.073 1038.51L252.043 1099.75L253.519 1101.1L309.548 1039.86L308.073 1038.51ZM252.997 1099.44L171.951 1081.54L171.52 1083.49L252.565 1101.4L252.997 1099.44ZM172.689 1082.21L147.673 1003.07L145.766 1003.68L170.782 1082.82L172.689 1082.21ZM147.457 1004.05L203.487 942.814L202.012 941.464L145.982 1002.7L147.457 1004.05ZM202.534 943.116L283.579 961.022L284.011 959.069L202.965 941.163L202.534 943.116Z" fill="#38343E" mask="url(#path-3-inside-2_1577_3)"/>
</g>
<defs>
<clipPath id="clip0_1577_3">
<rect width="1920" height="1080" fill="white"/>
</clipPath>
</defs>
</svg>
