<svg width="55" height="60" viewBox="0 0 55 60" fill="none" xmlns="http://www.w3.org/2000/svg">
<path d="M15.1019 3.92442C15.8678 2.08025 17.9769 1.209 19.8253 1.96465L39.1276 9.85586C40.9849 10.6152 41.8762 12.7355 41.1191 14.5938L26.3961 50.7331C25.6432 52.5812 23.5415 53.4772 21.6867 52.7409L14.1055 49.731C12.8293 49.2243 11.3633 49.4743 10.5132 50.5526C9.3681 52.0053 8.02318 54.2558 8.22756 56.6344C8.45438 59.2742 8.1291 59.1192 7.87501 58.691C7.67487 58.3538 7.49897 58.0023 7.25628 57.6943C6.32167 56.5079 3.84325 53.2731 2.64326 50.8533C0.98814 47.5157 -0.651321 46.2631 0.261942 41.7345C1.00622 38.0438 11.3132 13.0481 15.1019 3.92442Z" fill="#28333E"/>
<path d="M18.0165 6.33244C18.3129 5.58581 19.1585 5.22085 19.9051 5.51728L36.8038 12.2264C37.5505 12.5228 37.9154 13.3684 37.619 14.115L27.1527 40.477C26.8563 41.2236 26.0107 41.5886 25.2641 41.2922L8.36541 34.583C7.61878 34.2866 7.25382 33.441 7.55024 32.6944L18.0165 6.33244Z" fill="white"/>
<path d="M17.7096 44.5528C17.0426 46.2328 15.1401 47.0539 13.4602 46.387C11.7803 45.72 10.9591 43.8175 11.6261 42.1375C12.293 40.4576 14.1956 39.6365 15.8755 40.3034C17.5554 40.9704 18.3766 42.8729 17.7096 44.5528Z" fill="white"/>
<path d="M16.3577 44.0161C15.9872 44.9494 14.9302 45.4056 13.9969 45.0351C13.0636 44.6645 12.6074 43.6076 12.978 42.6743C13.3485 41.741 14.4055 41.2848 15.3388 41.6553C16.272 42.0259 16.7282 43.0828 16.3577 44.0161Z" fill="#71EBC6"/>
<path d="M21.1613 18.5363C20.8649 19.2829 19.5654 19.4676 18.2588 18.9489C16.9522 18.4301 16.1333 17.4043 16.4297 16.6577C16.7261 15.9111 18.0256 15.7263 19.3322 16.2451C20.6389 16.7638 21.4578 17.7896 21.1613 18.5363Z" fill="#7E7E7E"/>
<path d="M39.4212 5.88068C43.615 7.62808 44.6173 10.0472 44.689 10.2329C44.6922 10.2413 44.695 10.2469 44.6998 10.2545C44.8035 10.421 46.0838 12.6269 44.3373 17.517C42.5191 22.608 48.7009 16.2928 46.8827 10.4581C45.0646 4.62346 35.0576 4.0625 39.4212 5.88068Z" fill="#71EBC6"/>
<path d="M41.4282 0.607842C43.2464 1.88074 48.4075 4.0033 49.9736 8.4407C51.0646 11.5316 51.2464 13.3352 49.4282 18.4261C47.61 23.517 56.2163 16.0562 53.61 7.71343C51.0038 -0.629385 39.61 -0.665053 41.4282 0.607842Z" fill="#71EBC6"/>
<path d="M31.4201 59.0909C31.4201 59.593 26.2103 60 19.7837 60C13.3571 60 8.14735 59.593 8.14735 59.0909C8.14735 58.5888 13.3571 58.1818 19.7837 58.1818C26.2103 58.1818 31.4201 58.5888 31.4201 59.0909Z" fill="url(#paint0_linear_1550_51)"/>
<path d="M30.9091 22.3636C30.6127 23.1103 29.3132 23.295 28.0066 22.7763C26.6999 22.2575 25.881 21.2317 26.1775 20.4851C26.4739 19.7384 27.7734 19.5537 29.08 20.0725C30.3866 20.5912 31.2055 21.617 30.9091 22.3636Z" fill="#7E7E7E"/>
<path d="M28.0066 32.6944C28.0418 32.8001 27.913 32.8775 27.8318 32.8012C22.7426 28.0168 15.1542 27.4374 11.9794 28.5894C11.9594 28.5967 11.9386 28.598 11.9185 28.5912C11.876 28.5768 11.8046 28.5451 11.8008 28.493C11.8002 28.4845 11.8009 28.4761 11.8001 28.4675C11.7893 28.3382 11.7137 27.2491 12.1981 26.8959C12.4906 26.6826 14.191 26.5674 14.554 26.5455C14.9169 26.5235 26.088 26.9369 28.0066 32.6944Z" fill="#7E7E7E"/>
<defs>
<linearGradient id="paint0_linear_1550_51" x1="8.15625" y1="58.9091" x2="31.0654" y2="58.9091" gradientUnits="userSpaceOnUse">
<stop stop-color="#181818" stop-opacity="0.52"/>
<stop offset="1" stop-color="#181818" stop-opacity="0"/>
</linearGradient>
</defs>
</svg>
