<svg width="118" height="61" viewBox="0 0 118 61" fill="none" xmlns="http://www.w3.org/2000/svg">
<path d="M15.1335 3.93261C15.9009 2.08459 18.0144 1.21152 19.8667 1.96875L39.2092 9.87643C41.0705 10.6373 41.9636 12.7621 41.2049 14.6242L26.4512 50.8389C25.6967 52.691 23.5906 53.5889 21.7319 52.8509L14.1349 49.8348C12.8561 49.327 11.387 49.5776 10.5352 50.6581C9.38765 52.1138 8.03992 54.369 8.24473 56.7526C8.47202 59.3979 8.14607 59.2426 7.89144 58.8135C7.69089 58.4755 7.51462 58.1234 7.27142 57.8147C6.33486 56.6258 3.85127 53.3843 2.64878 50.9594C0.990202 47.6149 -0.652681 46.3597 0.262489 41.8216C1.00832 38.1232 11.3368 13.0754 15.1335 3.93261Z" fill="#28333E"/>
<path d="M18.0541 6.34566C18.3511 5.59747 19.1985 5.23175 19.9467 5.52879L36.8806 12.2519C37.6288 12.549 37.9946 13.3963 37.6975 14.1445L27.2094 40.5615C26.9124 41.3097 26.065 41.6754 25.3168 41.3784L8.38287 34.6552C7.63468 34.3582 7.26895 33.5108 7.566 32.7626L18.0541 6.34566Z" fill="white"/>
<path d="M17.7466 44.6458C17.0782 46.3292 15.1717 47.1521 13.4883 46.4838C11.8049 45.8154 10.982 43.9089 11.6503 42.2255C12.3187 40.5421 14.2252 39.7192 15.9086 40.3875C17.592 41.0559 18.4149 42.9624 17.7466 44.6458Z" fill="white"/>
<path d="M16.3918 44.108C16.0205 45.0432 14.9614 45.5004 14.0261 45.1291C13.0909 44.7577 12.6337 43.6986 13.0051 42.7633C13.3764 41.8281 14.4355 41.3709 15.3708 41.7423C16.306 42.1136 16.7632 43.1727 16.3918 44.108Z" fill="#71EBC6"/>
<path d="M21.2055 18.5749C20.9085 19.3231 19.6062 19.5083 18.2969 18.9884C16.9876 18.4686 16.1669 17.4407 16.464 16.6925C16.761 15.9443 18.0633 15.7592 19.3726 16.279C20.6819 16.7988 21.5025 17.8268 21.2055 18.5749Z" fill="#7E7E7E"/>
<path d="M30.8818 22.2129C31.3819 22.0812 31.757 21.861 31.9639 21.5778C32.1707 21.2947 32.2007 20.9602 32.0505 20.6131C31.9002 20.266 31.5759 19.9205 31.1149 19.6166C30.6539 19.3126 30.0752 19.0627 29.4458 18.8957C28.8164 18.7287 28.162 18.6514 27.5583 18.6729C26.9547 18.6944 26.4265 18.8137 26.0349 19.017C25.6433 19.2203 25.4043 19.4993 25.3456 19.8218C25.2869 20.1442 25.4108 20.4968 25.7031 20.8389C25.9954 21.1809 26.3525 19.7755 28.738 20.5099C31.1235 21.2442 30.3817 22.3447 30.8818 22.2129Z" fill="#7E7E7E"/>
<path d="M27.9257 23.5774C27.8193 23.5364 27.7253 23.676 27.792 23.7685C28.7709 25.1272 29.3593 27.9981 27.8732 30.2218C27.8008 30.3301 27.9634 30.5008 28.0689 30.4243C32.9711 26.8712 30.2889 24.4885 27.9257 23.5774Z" fill="#7E7E7E"/>
<path d="M12.7795 21.665C12.7507 21.5571 12.8842 21.4875 12.9608 21.5687C17.7764 26.6786 25.3639 27.7086 28.5924 26.733C28.6732 26.7086 28.7502 26.7795 28.7336 26.8622L28.3836 28.6059C28.3754 28.6468 28.3457 28.6792 28.3054 28.6895C23.3619 29.9552 14.3497 27.5402 12.7795 21.665Z" fill="#7E7E7E"/>
<path d="M39.5035 5.89296C43.706 7.644 44.7104 10.0682 44.7823 10.2543C44.7855 10.2627 44.7883 10.2683 44.7931 10.2759C44.897 10.4427 46.1799 12.6533 44.4298 17.5536C42.6078 22.6551 48.8026 16.3268 46.9806 10.48C45.1586 4.63311 35.1307 4.07098 39.5035 5.89296Z" fill="#71EBC6"/>
<path d="M41.5147 0.609111C43.3366 1.88466 48.5085 4.01165 50.0779 8.45832C51.1711 11.5557 51.3533 13.3631 49.5313 18.4646C47.7094 23.5661 56.3336 16.0898 53.7219 7.72953C51.1102 -0.6307 39.6927 -0.666441 41.5147 0.609111Z" fill="#71EBC6"/>
<path d="M40.495 30.8945C40.1988 30.8945 39.9413 30.7851 39.7225 30.5662C39.5036 30.3473 39.3941 30.0898 39.3941 29.7937V29.2722C39.3941 28.9761 39.5036 28.7186 39.7225 28.4997C39.9413 28.2808 40.1988 28.1714 40.495 28.1714H49.1086C49.4047 28.1714 49.6622 28.2808 49.8811 28.4997C50.1 28.7186 50.2094 28.9761 50.2094 29.2722V29.7937C50.2094 30.0898 50.1 30.3473 49.8811 30.5662C49.6622 30.7851 49.4047 30.8945 49.1086 30.8945H46.6365C46.5335 30.8945 46.482 30.946 46.482 31.049V41.169C46.482 41.4651 46.3726 41.7227 46.1537 41.9415C45.9348 42.1604 45.6773 42.2699 45.3812 42.2699H44.2224C43.9262 42.2699 43.6687 42.1604 43.4499 41.9415C43.231 41.7227 43.1215 41.4651 43.1215 41.169V31.049C43.1215 30.946 43.07 30.8945 42.967 30.8945H40.495Z" fill="#71EBC6"/>
<path d="M59.871 34.1391C59.2916 34.1391 58.8539 34.2936 58.5577 34.6026C58.2616 34.8987 58.0749 35.4138 57.9977 36.1476C57.9977 36.2507 58.0427 36.3022 58.1328 36.3022H61.3967C61.5126 36.3022 61.5705 36.2442 61.5705 36.1283C61.519 34.8022 60.9525 34.1391 59.871 34.1391ZM60.3538 42.463C58.6028 42.463 57.2509 42.0188 56.2981 41.1304C55.3582 40.242 54.8883 38.948 54.8883 37.2485C54.8883 35.5618 55.3067 34.2743 56.1436 33.3859C56.9934 32.4846 58.2165 32.034 59.8131 32.034C62.8774 32.034 64.4353 33.7078 64.4868 37.0554C64.4868 37.3644 64.3645 37.6283 64.1199 37.8472C63.8881 38.0532 63.6177 38.1562 63.3087 38.1562H58.1522C58.0234 38.1562 57.9719 38.2141 57.9977 38.33C58.1007 39.0382 58.371 39.5467 58.8088 39.8557C59.2594 40.1519 59.9289 40.2999 60.8173 40.2999C61.3967 40.2999 62.0212 40.2162 62.6907 40.0489C62.9611 39.9845 63.1993 40.036 63.4053 40.2034C63.6242 40.3707 63.7336 40.5896 63.7336 40.86V40.8986C63.7336 41.2205 63.6306 41.5166 63.4246 41.787C63.2315 42.0445 62.9804 42.199 62.6714 42.2505C61.9246 42.3922 61.1521 42.463 60.3538 42.463Z" fill="#71EBC6"/>
<path d="M72.8774 42.2699C72.5812 42.2699 72.3237 42.1604 72.1049 41.9415C71.886 41.7227 71.7765 41.4651 71.7765 41.169V28.886C71.7765 28.5898 71.886 28.3323 72.1049 28.1135C72.3237 27.8946 72.5812 27.7851 72.8774 27.7851H73.9589C74.255 27.7851 74.5125 27.8946 74.7314 28.1135C74.9503 28.3323 75.0597 28.5898 75.0597 28.886V41.169C75.0597 41.4651 74.9503 41.7227 74.7314 41.9415C74.5125 42.1604 74.255 42.2699 73.9589 42.2699H72.8774Z" fill="#71EBC6"/>
<path d="M83.6069 39.2377L87.5081 34.4674V34.4288C87.5081 34.4159 87.5017 34.4095 87.4888 34.4095H84.0125C83.7164 34.4095 83.4589 34.3065 83.24 34.1005C83.0211 33.8816 82.9117 33.6241 82.9117 33.328C82.9117 33.0318 83.0211 32.7743 83.24 32.5554C83.4589 32.3366 83.7164 32.2271 84.0125 32.2271H90.3085C90.6047 32.2271 90.8622 32.3366 91.0811 32.5554C91.2999 32.7743 91.4094 33.0318 91.4094 33.328C91.4094 34.049 91.1776 34.6927 90.7141 35.2593L86.8129 40.0295V40.0682C86.8129 40.0811 86.8193 40.0875 86.8322 40.0875H90.3085C90.6047 40.0875 90.8622 40.1969 91.0811 40.4158C91.2999 40.6218 91.4094 40.8729 91.4094 41.169C91.4094 41.4651 91.2999 41.7227 91.0811 41.9415C90.8622 42.1604 90.6047 42.2699 90.3085 42.2699H84.0125C83.7164 42.2699 83.4589 42.1604 83.24 41.9415C83.0211 41.7227 82.9117 41.4651 82.9117 41.169C82.9117 40.448 83.1434 39.8042 83.6069 39.2377Z" fill="white"/>
<path d="M100.376 42.2699C100.08 42.2699 99.8221 42.1604 99.6032 41.9415C99.3843 41.7227 99.2749 41.4651 99.2749 41.169V33.328C99.2749 33.0318 99.3843 32.7743 99.6032 32.5554C99.8221 32.3366 100.08 32.2271 100.376 32.2271H101.457C101.753 32.2271 102.011 32.3366 102.23 32.5554C102.449 32.7743 102.558 33.0318 102.558 33.328V41.169C102.558 41.4651 102.449 41.7227 102.23 41.9415C102.011 42.1604 101.753 42.2699 101.457 42.2699H100.376ZM100.376 30.2958C100.08 30.2958 99.8221 30.1864 99.6032 29.9675C99.3843 29.7486 99.2749 29.4911 99.2749 29.195V28.886C99.2749 28.5898 99.3843 28.3323 99.6032 28.1135C99.8221 27.8946 100.08 27.7851 100.376 27.7851H101.457C101.753 27.7851 102.011 27.8946 102.23 28.1135C102.449 28.3323 102.558 28.5898 102.558 28.886V29.195C102.558 29.4911 102.449 29.7486 102.23 29.9675C102.011 30.1864 101.753 30.2958 101.457 30.2958H100.376Z" fill="white"/>
<path d="M111.492 42.2699C111.195 42.2699 110.938 42.1604 110.719 41.9415C110.513 41.7227 110.41 41.4651 110.41 41.169V33.328C110.41 33.0318 110.513 32.7743 110.719 32.5554C110.938 32.3366 111.195 32.2271 111.492 32.2271H112.438C112.734 32.2271 112.985 32.3366 113.191 32.5554C113.41 32.7743 113.519 33.0318 113.519 33.328V34.1391C113.519 34.152 113.526 34.1584 113.539 34.1584C113.564 34.1584 113.577 34.152 113.577 34.1391C114.376 33.0704 115.489 32.446 116.918 32.2657C117.215 32.2271 117.466 32.3172 117.672 32.5361C117.891 32.755 118 33.019 118 33.328V33.4825C118 33.7786 117.891 34.0361 117.672 34.255C117.466 34.4739 117.208 34.5962 116.899 34.6219C115.856 34.7378 115.045 35.0983 114.466 35.7035C113.899 36.2957 113.616 37.0682 113.616 38.021V41.169C113.616 41.4651 113.507 41.7227 113.288 41.9415C113.082 42.1604 112.831 42.2699 112.534 42.2699H111.492Z" fill="white"/>
<path d="M31.4857 59.2142C31.4857 59.7174 26.265 60.1252 19.825 60.1252C13.385 60.1252 8.16435 59.7174 8.16435 59.2142C8.16435 58.7111 13.385 58.3032 19.825 58.3032C26.265 58.3032 31.4857 58.7111 31.4857 59.2142Z" fill="url(#paint0_linear_1573_2)"/>
<defs>
<linearGradient id="paint0_linear_1573_2" x1="8.16474" y1="59.032" x2="31.1217" y2="59.032" gradientUnits="userSpaceOnUse">
<stop stop-color="#181818" stop-opacity="0.52"/>
<stop offset="1" stop-color="#181818" stop-opacity="0"/>
</linearGradient>
</defs>
</svg>
